<?xml version="1.0" encoding="UTF-8" standalone="no"?>
<svg
   xmlns:dc="http://purl.org/dc/elements/1.1/"
   xmlns:cc="http://creativecommons.org/ns#"
   xmlns:rdf="http://www.w3.org/1999/02/22-rdf-syntax-ns#"
   xmlns:svg="http://www.w3.org/2000/svg"
   xmlns="http://www.w3.org/2000/svg"
   xmlns:sodipodi="http://sodipodi.sourceforge.net/DTD/sodipodi-0.dtd"
   xmlns:inkscape="http://www.inkscape.org/namespaces/inkscape"
   version="1.1"
   id="svg2"
   xml:space="preserve"
   width="1122.52"
   height="793.70667"
   viewBox="0 0 1122.52 793.70667"
   sodipodi:docname="Logo_Ai.ai"><metadata
     id="metadata8"><rdf:RDF><cc:Work
         rdf:about=""><dc:format>image/svg+xml</dc:format><dc:type
           rdf:resource="http://purl.org/dc/dcmitype/StillImage" /></cc:Work></rdf:RDF></metadata><defs
     id="defs6"><clipPath
       clipPathUnits="userSpaceOnUse"
       id="clipPath18"><path
         d="M 0,595.28 H 841.89 V 0 H 0 Z"
         id="path16" /></clipPath></defs><sodipodi:namedview
     pagecolor="#ffffff"
     bordercolor="#666666"
     borderopacity="1"
     objecttolerance="10"
     gridtolerance="10"
     guidetolerance="10"
     inkscape:pageopacity="0"
     inkscape:pageshadow="2"
     inkscape:window-width="640"
     inkscape:window-height="480"
     id="namedview4" /><g
     id="g10"
     inkscape:groupmode="layer"
     inkscape:label="Logo_Ai"
     transform="matrix(1.3333333,0,0,-1.3333333,0,793.70667)"><g
       id="g12"><g
         id="g14"
         clip-path="url(#clipPath18)"><g
           id="g20"
           transform="translate(237.7983,246.3611)"><path
             d="m 0,0 c -13.913,0 -26.603,5.365 -35.731,15.107 -8.997,9.601 -13.952,22.789 -13.952,37.13 0,14.342 4.955,27.529 13.952,37.131 9.128,9.742 21.818,15.108 35.731,15.108 14.571,0 27.518,-5.244 38.515,-15.595 l 12.92,14.098 c -9.925,9.647 -26.602,20.48 -51.435,20.48 -18.265,0 -35.147,-6.368 -47.981,-17.999 L -65.408,23.88 C -62.004,15.626 -57.092,8.104 -50.795,1.703 -37.669,-11.639 -19.63,-18.986 0,-18.986 c 24.834,0 41.511,10.834 51.435,20.482 L 38.515,15.592 C 27.52,5.243 14.573,0 0,0"
             style="fill:#e52520;fill-opacity:1;fill-rule:nonzero;stroke:none"
             id="path22" /></g><g
           id="g24"
           transform="translate(212.6548,409.4738)"><path
             d="m 0,0 c 0,-5.241 -4.249,-9.49 -9.49,-9.49 -5.24,0 -9.489,4.249 -9.489,9.49 0,5.241 4.249,9.49 9.489,9.49 C -4.249,9.49 0,5.241 0,0"
             style="fill:#b4b4b4;fill-opacity:1;fill-rule:nonzero;stroke:none"
             id="path26" /></g><g
           id="g28"
           transform="translate(173.2974,231.5349)"><path
             d="m 0,0 c 0,-5.24 -4.249,-9.49 -9.49,-9.49 -5.24,0 -9.489,4.25 -9.489,9.49 0,5.241 4.249,9.49 9.489,9.49 C -4.249,9.49 0,5.241 0,0"
             style="fill:#b4b4b4;fill-opacity:1;fill-rule:nonzero;stroke:none"
             id="path30" /></g><g
           id="g32"
           transform="translate(273.2642,138.7732)"><path
             d="m 0,0 c 0,-5.24 -4.249,-9.489 -9.489,-9.489 -5.241,0 -9.49,4.249 -9.49,9.489 0,5.242 4.249,9.49 9.49,9.49 C -4.249,9.49 0,5.242 0,0"
             style="fill:#b4b4b4;fill-opacity:1;fill-rule:nonzero;stroke:none"
             id="path34" /></g><g
           id="g36"
           transform="translate(351.9785,415.3596)"><path
             d="m 0,0 c 0,-5.24 -4.249,-9.49 -9.49,-9.49 -5.241,0 -9.489,4.25 -9.489,9.49 0,5.242 4.248,9.49 9.489,9.49 C -4.249,9.49 0,5.242 0,0"
             style="fill:#b4b4b4;fill-opacity:1;fill-rule:nonzero;stroke:none"
             id="path38" /></g><g
           id="g40"
           transform="translate(173.2974,456.7463)"><path
             d="m 0,0 c 0,-5.24 -4.249,-9.49 -9.49,-9.49 -5.24,0 -9.489,4.25 -9.489,9.49 0,5.242 4.249,9.49 9.489,9.49 C -4.249,9.49 0,5.242 0,0"
             style="fill:#b4b4b4;fill-opacity:1;fill-rule:nonzero;stroke:none"
             id="path42" /></g><g
           id="g44"
           transform="translate(67.6807,349.1501)"><path
             d="m 0,0 c 0,-5.24 -4.249,-9.49 -9.489,-9.49 -5.241,0 -9.49,4.25 -9.49,9.49 0,5.242 4.249,9.49 9.49,9.49 C -4.249,9.49 0,5.242 0,0"
             style="fill:#b4b4b4;fill-opacity:1;fill-rule:nonzero;stroke:none"
             id="path46" /></g><g
           id="g48"
           transform="translate(107.1338,180.4294)"><path
             d="m 0,0 c 0,-5.24 -4.249,-9.489 -9.49,-9.489 -5.24,0 -9.489,4.249 -9.489,9.489 0,5.242 4.249,9.49 9.489,9.49 C -4.249,9.49 0,5.242 0,0"
             style="fill:#b4b4b4;fill-opacity:1;fill-rule:nonzero;stroke:none"
             id="path50" /></g><g
           id="g52"
           transform="translate(202.5498,408.9616)"><path
             d="m 0,0 -39.357,47.272 1.231,1.025 L 1.231,1.024 Z"
             style="fill:#b4b4b4;fill-opacity:1;fill-rule:nonzero;stroke:none"
             id="path54" /></g><g
           id="g56"
           transform="translate(58.7637,348.5891)"><path
             d="m 0,0 -1.144,1.122 105.617,107.596 1.143,-1.121 z"
             style="fill:#b4b4b4;fill-opacity:1;fill-rule:nonzero;stroke:none"
             id="path58" /></g><g
           id="g60"
           transform="translate(163.2119,230.9997)"><path
             d="m 0,0 -105.616,117.615 1.192,1.07 L 1.192,1.069 Z"
             style="fill:#b4b4b4;fill-opacity:1;fill-rule:nonzero;stroke:none"
             id="path62" /></g><g
           id="g64"
           transform="translate(98.1333,179.7956)"><path
             d="m 0,0 -0.979,1.268 66.164,51.104 0.979,-1.267 z"
             style="fill:#b4b4b4;fill-opacity:1;fill-rule:nonzero;stroke:none"
             id="path66" /></g><g
           id="g68"
           transform="translate(96.8662,189.7273)"><path
             d="m 0,0 -39.452,159.23 1.555,0.385 L 1.555,0.385 Z"
             style="fill:#b4b4b4;fill-opacity:1;fill-rule:nonzero;stroke:none"
             id="path70" /></g><g
           id="g72"
           transform="translate(164.5898,231.362)"><path
             d="m 0,0 -1.564,0.346 39.357,177.939 1.564,-0.346 z"
             style="fill:#b4b4b4;fill-opacity:1;fill-rule:nonzero;stroke:none"
             id="path74" /></g><g
           id="g76"
           transform="translate(263.2295,138.1862)"><path
             d="m 0,0 -99.967,92.761 1.091,1.175 L 1.09,1.175 Z"
             style="fill:#b4b4b4;fill-opacity:1;fill-rule:nonzero;stroke:none"
             id="path78" /></g><g
           id="g80"
           transform="translate(263.5801,137.9968)"><path
             d="m 0,0 -166.131,41.656 0.389,1.553 L 0.389,1.554 Z"
             style="fill:#b4b4b4;fill-opacity:1;fill-rule:nonzero;stroke:none"
             id="path82" /></g><g
           id="g84"
           transform="translate(203.1987,408.674)"><path
             d="m 0,0 -0.067,1.6 139.323,5.885 0.068,-1.6 z"
             style="fill:#b4b4b4;fill-opacity:1;fill-rule:nonzero;stroke:none"
             id="path86" /></g><g
           id="g88"
           transform="translate(342.3081,414.5788)"><path
             d="m 0,0 -178.681,41.387 0.362,1.561 L 0.361,1.561 Z"
             style="fill:#b4b4b4;fill-opacity:1;fill-rule:nonzero;stroke:none"
             id="path90" /></g><g
           id="g92"
           transform="translate(58.5039,348.4123)"><path
             d="m 0,0 -0.624,1.475 142.493,60.323 0.624,-1.475 z"
             style="fill:#b4b4b4;fill-opacity:1;fill-rule:nonzero;stroke:none"
             id="path94" /></g><g
           id="g96"
           transform="translate(382.8418,246.3611)"><path
             d="m 0,0 c -29.282,0 -50.534,21.969 -50.534,52.237 0,30.269 21.252,52.239 50.534,52.239 29.117,0 50.251,-21.97 50.251,-52.239 C 50.251,21.969 29.117,0 0,0 m 0,123.459 c -40.927,0 -71.79,-30.619 -71.79,-71.222 0,-40.603 30.863,-71.223 71.79,-71.223 19.773,0 37.954,7.349 51.191,20.694 13.1,13.208 20.316,31.152 20.316,50.529 0,19.377 -7.215,37.322 -20.316,50.529 C 37.954,116.11 19.774,123.459 0,123.459"
             style="fill:#e52520;fill-opacity:1;fill-rule:nonzero;stroke:none"
             id="path98" /></g><g
           id="g100"
           transform="translate(550.3047,348.5656)"><path
             d="m 0,0 c 4.218,0 8.114,-0.383 11.62,-1.143 v 20.994 c -2.509,0.362 -5.218,0.552 -7.931,0.552 -15.547,0 -28.203,-5.863 -37.614,-17.426 l -3.554,-4.369 v 20.375 h -20.405 v -137.902 h 20.405 v 94.917 l 0.17,0.386 C -30.672,-8.607 -17.074,0 0,0"
             style="fill:#e52520;fill-opacity:1;fill-rule:nonzero;stroke:none"
             id="path102" /></g><g
           id="g104"
           transform="translate(600.8213,311.9206)"><path
             d="M 0,0 0.622,2.488 C 6.239,24.962 24.046,39.484 45.987,39.484 70.065,39.786 87.797,25.201 91.109,2.289 L 91.44,0 Z M 95.133,38.012 C 83.289,51.023 66.787,57.899 47.407,57.899 c -38.824,0 -69.236,-31.284 -69.236,-71.222 0,-19.384 7.153,-37.33 20.143,-50.533 13.126,-13.342 31.165,-20.69 50.795,-20.69 21.059,0 40.727,7.646 54.287,21.037 L 90.458,-49.396 C 83.329,-56.022 69.521,-65.56 49.109,-65.56 c -26.355,0 -47.247,19.386 -49.673,46.096 l -0.2,2.184 h 115.369 c -0.739,23.004 -7.453,42.089 -19.472,55.292"
             style="fill:#e52520;fill-opacity:1;fill-rule:nonzero;stroke:none"
             id="path106" /></g><g
           id="g108"
           transform="translate(793,365.6496)"><path
             d="m 0,0 c 0,-17.583 -14.253,-31.835 -31.836,-31.835 -17.582,0 -31.836,14.252 -31.836,31.835 0,17.583 14.254,31.836 31.836,31.836 C -14.253,31.836 0,17.583 0,0"
             style="fill:#e52520;fill-opacity:1;fill-rule:nonzero;stroke:none"
             id="path110" /></g><g
           id="g112"
           transform="translate(740.8027,359.1526)"><path
             d="M 0,0 C -0.202,-0.292 -0.352,-0.628 -0.449,-1.006 H 9.712 C 9.543,-1.787 9.374,-2.566 9.204,-3.346 h -12.12 v 1.524 c 0.011,0.28 0.039,0.552 0.08,0.816 0.139,0.876 0.443,1.658 0.912,2.337 0.713,1.03 1.526,1.416 2.757,1.999 0.573,0.272 1.288,0.61 2.199,1.107 2.006,1.092 2.844,1.568 3.43,2.384 0.609,0.846 0.919,1.927 0.921,3.212 v 0.012 c -0.008,2.188 -1.79,3.967 -3.981,3.967 -1.697,0 -3.151,-1.07 -3.72,-2.57 l -2.188,0.828 c 0.904,2.383 3.212,4.081 5.908,4.081 1.508,0 2.894,-0.53 3.981,-1.415 1.41,-1.146 2.319,-2.889 2.338,-4.839 10e-4,-0.016 10e-4,-0.033 10e-4,-0.049 V 10.033 C 9.719,8.248 9.262,6.709 8.361,5.457 7.44,4.174 6.202,3.5 4.151,2.383 3.182,1.856 2.435,1.5 1.835,1.217 0.687,0.672 0.342,0.493 0,0"
             style="fill:#ffffff;fill-opacity:1;fill-rule:nonzero;stroke:none"
             id="path114" /></g><g
           id="g116"
           transform="translate(758.5713,372.0163)"><path
             d="M 0,0 C -1.958,-2.468 -3.915,-4.937 -5.871,-7.404 H 0 Z M 4.94,-7.405 C 4.771,-8.185 4.602,-8.965 4.433,-9.744 H 2.339 v -6.477 H 0 v 6.478 h -8.423 v 2.339 c 2.806,3.539 5.613,7.079 8.419,10.62 h 2.34 L 2.33,3.207 H 2.339 V -7.405 Z"
             style="fill:#ffffff;fill-opacity:1;fill-rule:nonzero;stroke:none"
             id="path118" /></g><g
           id="g120"
           transform="translate(784.4414,375.2258)"><path
             d="m 0,0 c -0.779,-1.794 -1.56,-3.588 -2.339,-5.382 -2.035,-4.682 -4.069,-9.366 -6.104,-14.047 h -2.339 c 2.475,5.697 4.951,11.393 7.428,17.09 h -6.875 c -0.169,0.78 -0.338,1.56 -0.507,2.339 z"
             style="fill:#ffffff;fill-opacity:1;fill-rule:nonzero;stroke:none"
             id="path122" /></g><g
           id="g124"
           transform="translate(770.3516,375.1999)"><path
             d="m 0,0 c -1.887,-4.343 -6.619,-15.06 -8.506,-19.403 h 2.339 C -4.279,-15.061 0.452,-4.344 2.339,0 Z"
             style="fill:#ffffff;fill-opacity:1;fill-rule:nonzero;stroke:none"
             id="path126" /></g></g></g></g></svg>
